<?xml version="1.0" encoding="UTF-8" standalone="no"?>
<svg
   xmlns:dc="http://purl.org/dc/elements/1.1/"
   xmlns:cc="http://creativecommons.org/ns#"
   xmlns:rdf="http://www.w3.org/1999/02/22-rdf-syntax-ns#"
   xmlns:svg="http://www.w3.org/2000/svg"
   xmlns="http://www.w3.org/2000/svg"
   xmlns:sodipodi="http://sodipodi.sourceforge.net/DTD/sodipodi-0.dtd"
   xmlns:inkscape="http://www.inkscape.org/namespaces/inkscape"
   inkscape:version="1.0 (4035a4fb49, 2020-05-01)"
   sodipodi:docname="for.svg"
   id="svg1707"
   version="1.1"
   viewBox="0 0 26.821318 16.127199"
   height="16.127199mm"
   width="26.821318mm">
  <defs
     id="defs1701" />
  <sodipodi:namedview
     fit-margin-bottom="0"
     fit-margin-right="0"
     fit-margin-left="0"
     fit-margin-top="0"
     inkscape:window-maximized="1"
     inkscape:window-y="-8"
     inkscape:window-x="-8"
     inkscape:window-height="715"
     inkscape:window-width="1366"
     showgrid="false"
     inkscape:document-rotation="0"
     inkscape:current-layer="layer1"
     inkscape:document-units="mm"
     inkscape:cy="2.5332911"
     inkscape:cx="-183.74533"
     inkscape:zoom="0.47493176"
     inkscape:pageshadow="2"
     inkscape:pageopacity="0.0"
     borderopacity="1.0"
     bordercolor="#666666"
     pagecolor="#ffffff"
     id="base" />
  <metadata
     id="metadata1704">
    <rdf:RDF>
      <cc:Work
         rdf:about="">
        <dc:format>image/svg+xml</dc:format>
        <dc:type
           rdf:resource="http://purl.org/dc/dcmitype/StillImage" />
        <dc:title></dc:title>
      </cc:Work>
    </rdf:RDF>
  </metadata>
  <g
     transform="translate(-73.256201,-101.05847)"
     id="layer1"
     inkscape:groupmode="layer"
     inkscape:label="Layer 1">
    <path
       id="path2284"
       d="m 74.442163,108.2162 1.810567,-2.4373 2.332848,-1.98466 2.541756,-1.14901 3.168494,-0.69637 2.437302,-0.13928 2.681031,0.13928 2.855127,0.69637 2.506937,1.35792 2.263209,2.01948 1.636474,2.71585 0.591916,1.53202 -0.104455,0.24373 -0.626735,0.66156 -3.447041,2.71585 -3.307766,1.63647 -2.9944,0.76601 -2.367664,0.13927 -2.01948,-0.20891 -2.855124,-0.62673 -2.402485,-1.25347 -1.810565,-1.25347 -2.228392,-2.12394 -1.079376,-1.56683 0.03482,-0.45264 z"
       style="fill:#ececec;stroke:#000000;stroke-width:1.5;stroke-linecap:butt;stroke-linejoin:miter;stroke-miterlimit:4;stroke-dasharray:none;stroke-opacity:1" />
    <path
       sodipodi:nodetypes="ccccccccccccccccccccccccccccccccccc"
       id="path2286"
       d="m 82.986417,104.19064 -0.605614,0.68298 -0.557096,1.53202 v 1.81056 l 0.06397,0.87709 0.418549,1.03406 0.861717,1.30489 1.05868,0.73861 1.206402,0.51703 1.501849,0.27082 1.107921,-0.0739 1.231022,-0.36931 0.861719,-0.41854 0.738613,-0.54165 0.664752,-0.93558 0.418547,-0.93558 0.270825,-0.73861 0.09848,-0.86172 -0.09848,-1.35413 -0.196963,-0.71399 -0.418547,-0.86172 -0.54165,-0.68937 -0.320067,-0.44317 -0.467788,-0.54165 -0.54165,-0.29544 -0.837097,-0.24621 -0.787855,-0.19696 h -0.763235 -0.566269 l -0.492411,0.0492 -0.787855,0.14772 -0.664753,0.17235 -0.61551,0.19696 -0.393928,0.0985 z"
       style="fill:#502d16;stroke:#000000;stroke-width:0;stroke-linecap:butt;stroke-linejoin:miter;stroke-miterlimit:4;stroke-dasharray:none;stroke-opacity:1" />
    <path
       sodipodi:nodetypes="cccccccccccccccccccccccc"
       id="path2288"
       d="m 84.448202,106.50814 -0.147722,1.10792 0.270824,0.76324 0.492411,0.66475 0.615511,0.41855 0.713994,0.2462 0.886336,0.0492 0.812477,-0.17234 0.664752,-0.46779 0.664753,-0.64013 0.172341,-0.76324 -0.09848,-0.61551 -0.123103,-0.49241 -0.221583,-0.61551 -0.246206,-0.46779 -0.295447,-0.2462 -0.369305,-0.24621 -0.492411,-0.14772 -0.295444,-0.0246 -0.467789,0.0246 -0.886337,0.0246 -0.738615,0.41855 -0.467788,0.59089 z"
       style="fill:#1a1a1a;stroke:#000000;stroke-width:0;stroke-linecap:butt;stroke-linejoin:miter;stroke-miterlimit:4;stroke-dasharray:none;stroke-opacity:1" />
    <ellipse
       ry="1.6865331"
       rx="1.7234331"
       cy="105.5356"
       cx="86.220879"
       id="path2294"
       style="opacity:1;fill:#999999;fill-opacity:1;stroke:#000000;stroke-width:0;stroke-miterlimit:4;stroke-dasharray:none" />
  </g>
</svg>
